<?xml version="1.0" encoding="UTF-8" standalone="no"?>
<svg
   xmlns:dc="http://purl.org/dc/elements/1.1/"
   xmlns:cc="http://creativecommons.org/ns#"
   xmlns:rdf="http://www.w3.org/1999/02/22-rdf-syntax-ns#"
   xmlns:svg="http://www.w3.org/2000/svg"
   xmlns="http://www.w3.org/2000/svg"
   xmlns:sodipodi="http://sodipodi.sourceforge.net/DTD/sodipodi-0.dtd"
   xmlns:inkscape="http://www.inkscape.org/namespaces/inkscape"
   width="63.700001"
   height="51.594879"
   id="svg3031"
   version="1.1"
   inkscape:version="0.48.5 r10040"
   sodipodi:docname="ril-title.svg">
  <metadata
     id="metadata2996">
    <rdf:RDF>
      <cc:Work
         rdf:about="">
        <dc:format>image/svg+xml</dc:format>
        <dc:type
           rdf:resource="http://purl.org/dc/dcmitype/StillImage" />
      </cc:Work>
    </rdf:RDF>
  </metadata>
  <defs
     id="defs2994" />
  <sodipodi:namedview
     pagecolor="#ffffff"
     bordercolor="#666666"
     borderopacity="1"
     objecttolerance="10"
     gridtolerance="10"
     guidetolerance="10"
     inkscape:pageopacity="0"
     inkscape:pageshadow="2"
     inkscape:window-width="1440"
     inkscape:window-height="878"
     id="namedview2992"
     showgrid="false"
     inkscape:zoom="0.43742214"
     inkscape:cx="78.262311"
     inkscape:cy="-245.8578"
     inkscape:window-x="1592"
     inkscape:window-y="-8"
     inkscape:window-maximized="1"
     inkscape:current-layer="svg3031"
     fit-margin-top="0"
     fit-margin-left="0"
     fit-margin-right="0"
     fit-margin-bottom="0" />
  <g
     id="layer1"
     transform="translate(340.42143,213.43526)">
    <path
       id="path2990-4"
       style="font-size:71.42389679px;font-style:normal;font-variant:normal;font-weight:normal;font-stretch:normal;line-height:125%;letter-spacing:0px;word-spacing:0px;fill:#004455;fill-opacity:1;stroke:none;font-family:VAGRounded BT;-inkscape-font-specification:VAGRounded BT"
       d="M -340.42143,-169.3443 -340.42143,-190.06786 C -340.42144,-192.60106 -339.92072,-194.4797 -338.91925,-195.70378 -337.91781,-196.92778 -336.3776,-197.53981 -334.29862,-197.53984 -333.05634,-197.53981 -331.95346,-197.26838 -330.99003,-196.72559 -330.02662,-196.18272 -329.17729,-195.35782 -328.44203,-194.25089 -327.17438,-195.40039 -325.83067,-196.26787 -324.41087,-196.85332 -322.9911,-197.43869 -321.55865,-197.73139 -320.11349,-197.73143 -318.41484,-197.73139 -316.95071,-197.22581 -315.72104,-196.21468 -314.49145,-195.20349 -313.87662,-194.00605 -313.8766,-192.62239 -313.87662,-190.55745 -316.13306,-188.83315 -320.64591,-187.44947 -322.26854,-186.95984 -323.48549,-186.55537 -324.29677,-186.23608 -325.84335,-185.61871 -326.87015,-184.93218 -327.37719,-184.17649 -327.88427,-183.42076 -328.13781,-182.05303 -328.13779,-180.07329 L -328.13779,-169.3443 C -328.13781,-166.81106 -328.64488,-164.9271 -329.65898,-163.69241 -330.67313,-162.45773 -332.21967,-161.84038 -334.29862,-161.84038 -336.3776,-161.84038 -337.91781,-162.45773 -338.91925,-163.69241 -339.92072,-164.9271 -340.42144,-166.81106 -340.42143,-169.3443 z"
       inkscape:connector-curvature="0" />
    <path
       id="path2992-0"
       style="font-size:71.42389679px;font-style:normal;font-variant:normal;font-weight:normal;font-stretch:normal;line-height:125%;letter-spacing:0px;word-spacing:0px;fill:#004455;fill-opacity:1;stroke:none;font-family:VAGRounded BT;-inkscape-font-specification:VAGRounded BT"
       d="M -298.17026,-169.3443 C -298.17028,-166.78977 -298.66467,-164.90048 -299.65342,-163.67645 -300.64223,-162.45241 -302.16341,-161.84038 -304.21701,-161.84038 -306.29598,-161.84038 -307.84253,-162.45773 -308.85665,-163.69241 -309.8708,-164.9271 -310.37785,-166.81106 -310.37785,-169.3443 L -310.37785,-190.06786 C -310.37785,-192.60106 -309.87713,-194.4797 -308.87567,-195.70378 -307.87422,-196.92778 -306.32133,-197.53981 -304.21701,-197.53984 -302.16341,-197.53981 -300.64223,-196.92778 -299.65342,-195.70378 -298.66467,-194.4797 -298.17028,-192.60106 -298.17026,-190.06786 z"
       inkscape:connector-curvature="0" />
    <path
       id="path2994-9"
       style="font-size:71.42389679px;font-style:normal;font-variant:normal;font-weight:normal;font-stretch:normal;line-height:125%;letter-spacing:0px;word-spacing:0px;fill:#004455;fill-opacity:1;stroke:none;font-family:VAGRounded BT;-inkscape-font-specification:VAGRounded BT"
       d="M -288.92901,-204.66057 C -288.92901,-207.21505 -288.42194,-209.10965 -287.40782,-210.34438 -286.39369,-211.57902 -284.84715,-212.19637 -282.76818,-212.19641 -280.73993,-212.19637 -279.22507,-211.5737 -278.22361,-210.32842 -277.22216,-209.08304 -276.72145,-207.19376 -276.72143,-204.66057 L -276.72143,-169.3443 C -276.72145,-166.78977 -277.21583,-164.90048 -278.20459,-163.67645 -279.19337,-162.45241 -280.71457,-161.84038 -282.76818,-161.84038 -284.84715,-161.84038 -286.39369,-162.45773 -287.40782,-163.69241 -288.42194,-164.9271 -288.92901,-166.81106 -288.92901,-169.3443 z"
       inkscape:connector-curvature="0" />
    <path
       style="fill:#004455;fill-opacity:1;stroke:none"
       d="M -308.04537,-212.55701 -309.1746,-209.73812 C -309.31332,-209.56983 -309.42666,-209.38811 -309.54901,-209.20687 -309.79371,-208.84439 -310.00072,-208.45801 -310.17303,-208.05062 -310.34534,-207.64323 -310.48789,-207.21247 -310.57864,-206.76937 -310.66944,-206.32627 -310.70345,-205.86398 -310.70345,-205.39437 -310.70345,-201.63748 -307.65264,-198.58187 -303.90165,-198.58187 -300.15066,-198.58187 -297.13105,-201.63748 -297.13105,-205.39437 -297.13105,-209.15126 -300.15066,-212.20687 -303.90165,-212.20687 -304.95511,-212.20687 -305.84974,-211.93496 -306.73998,-211.50359 L -305.89851,-209.76937 C -305.28918,-210.05074 -304.61697,-210.20687 -303.90165,-210.20687 -301.25314,-210.20687 -299.12791,-208.04704 -299.12791,-205.39437 -299.12791,-202.7417 -301.25314,-200.58187 -303.90165,-200.58187 -306.55015,-200.58187 -308.70659,-202.7417 -308.70659,-205.39437 -308.70659,-205.72595 -308.67719,-206.0502 -308.61299,-206.36312 -308.54889,-206.67605 -308.45395,-206.98161 -308.33219,-207.26937 -308.22326,-207.52677 -308.07669,-207.75579 -307.92657,-207.98812 L -305.64923,-207.76415 z"
       id="path3028-4-8-8"
       inkscape:connector-curvature="0" />
    <path
       style="fill:#d45500;fill-opacity:1;stroke:none"
       d="M -308.42436,-213.43526 -309.55359,-210.61637 C -309.69232,-210.44808 -309.80566,-210.26636 -309.92801,-210.08512 -310.1727,-209.72264 -310.37972,-209.33626 -310.55202,-208.92887 -310.72433,-208.52148 -310.86689,-208.09072 -310.95764,-207.64762 -311.04834,-207.20452 -311.08244,-206.74223 -311.08244,-206.27262 -311.08244,-202.51573 -308.03163,-199.46012 -304.28064,-199.46012 -300.52965,-199.46012 -297.51004,-202.51573 -297.51004,-206.27262 -297.51004,-210.02951 -300.52965,-213.08512 -304.28064,-213.08512 -305.3341,-213.08512 -306.22874,-212.81321 -307.11898,-212.38184 L -306.2775,-210.64762 C -305.66818,-210.92899 -304.99597,-211.08512 -304.28064,-211.08512 -301.63214,-211.08512 -299.5069,-208.92529 -299.5069,-206.27262 -299.5069,-203.61995 -301.63214,-201.46012 -304.28064,-201.46012 -306.92914,-201.46012 -309.08558,-203.61995 -309.08558,-206.27262 -309.08558,-206.6042 -309.05628,-206.92845 -308.99208,-207.24137 -308.92798,-207.5543 -308.83304,-207.85986 -308.71127,-208.14762 -308.60234,-208.40502 -308.45577,-208.63404 -308.30566,-208.86637 L -306.02831,-208.6424 z"
       id="path3028-4-2"
       inkscape:connector-curvature="0" />
  </g>
</svg>
