<?xml version="1.0" encoding="UTF-8" standalone="no"?>
<svg
   xmlns:dc="http://purl.org/dc/elements/1.1/"
   xmlns:cc="http://creativecommons.org/ns#"
   xmlns:rdf="http://www.w3.org/1999/02/22-rdf-syntax-ns#"
   xmlns:svg="http://www.w3.org/2000/svg"
   xmlns="http://www.w3.org/2000/svg"
   xmlns:sodipodi="http://sodipodi.sourceforge.net/DTD/sodipodi-0.dtd"
   xmlns:inkscape="http://www.inkscape.org/namespaces/inkscape"
   width="656"
   height="160"
   id="svg3031"
   version="1.1"
   inkscape:version="0.48.5 r10040"
   sodipodi:docname="ril-banner.svg">
  <metadata
     id="metadata2996">
    <rdf:RDF>
      <cc:Work
         rdf:about="">
        <dc:format>image/svg+xml</dc:format>
        <dc:type
           rdf:resource="http://purl.org/dc/dcmitype/StillImage" />
        <dc:title></dc:title>
      </cc:Work>
    </rdf:RDF>
  </metadata>
  <defs
     id="defs2994">
    <inkscape:path-effect
       effect="spiro"
       id="path-effect4399"
       is_visible="true" />
    <inkscape:path-effect
       effect="spiro"
       id="path-effect4395"
       is_visible="true" />
    <inkscape:path-effect
       effect="spiro"
       id="path-effect4323"
       is_visible="true" />
    <inkscape:path-effect
       effect="spiro"
       id="path-effect4319"
       is_visible="true" />
    <inkscape:path-effect
       effect="spiro"
       id="path-effect4304"
       is_visible="true" />
    <inkscape:path-effect
       effect="spiro"
       id="path-effect4300"
       is_visible="true" />
    <inkscape:path-effect
       effect="spiro"
       id="path-effect4065"
       is_visible="true" />
    <inkscape:path-effect
       effect="spiro"
       id="path-effect4061"
       is_visible="true" />
    <inkscape:path-effect
       effect="spiro"
       id="path-effect4057"
       is_visible="true" />
    <inkscape:path-effect
       effect="spiro"
       id="path-effect3984"
       is_visible="true" />
    <inkscape:path-effect
       effect="spiro"
       id="path-effect3980"
       is_visible="true" />
    <inkscape:path-effect
       effect="spiro"
       id="path-effect3976"
       is_visible="true" />
    <inkscape:path-effect
       effect="spiro"
       id="path-effect3972"
       is_visible="true" />
    <inkscape:path-effect
       effect="spiro"
       id="path-effect4323-4"
       is_visible="true" />
    <inkscape:path-effect
       effect="spiro"
       id="path-effect4323-2"
       is_visible="true" />
  </defs>
  <sodipodi:namedview
     pagecolor="#ffffff"
     bordercolor="#666666"
     borderopacity="1"
     objecttolerance="10"
     gridtolerance="10"
     guidetolerance="10"
     inkscape:pageopacity="0"
     inkscape:pageshadow="2"
     inkscape:window-width="1440"
     inkscape:window-height="878"
     id="namedview2992"
     showgrid="false"
     inkscape:zoom="1"
     inkscape:cx="326.5305"
     inkscape:cy="147.85469"
     inkscape:window-x="1592"
     inkscape:window-y="-8"
     inkscape:window-maximized="1"
     inkscape:current-layer="svg3031"
     fit-margin-top="10"
     fit-margin-left="10"
     fit-margin-right="10"
     fit-margin-bottom="2"
     width="2104.72px" />
  <g
     id="layer1"
     transform="matrix(2.5164317,0,0,2.9242633,866.72785,629.8658)">
    <path
       id="path2990-4"
       style="font-size:71.42389679px;font-style:normal;font-variant:normal;font-weight:normal;font-stretch:normal;line-height:125%;letter-spacing:0px;word-spacing:0px;fill:#004455;fill-opacity:1;stroke:none;font-family:VAGRounded BT;-inkscape-font-specification:VAGRounded BT"
       d="M -340.42143,-169.3443 -340.42143,-190.06786 C -340.42144,-192.60106 -339.92072,-194.4797 -338.91925,-195.70378 -337.91781,-196.92778 -336.3776,-197.53981 -334.29862,-197.53984 -333.05634,-197.53981 -331.95346,-197.26838 -330.99003,-196.72559 -330.02662,-196.18272 -329.17729,-195.35782 -328.44203,-194.25089 -327.17438,-195.40039 -325.83067,-196.26787 -324.41087,-196.85332 -322.9911,-197.43869 -321.55865,-197.73139 -320.11349,-197.73143 -318.41484,-197.73139 -316.95071,-197.22581 -315.72104,-196.21468 -314.49145,-195.20349 -313.87662,-194.00605 -313.8766,-192.62239 -313.87662,-190.55745 -316.13306,-188.83315 -320.64591,-187.44947 -322.26854,-186.95984 -323.48549,-186.55537 -324.29677,-186.23608 -325.84335,-185.61871 -326.87015,-184.93218 -327.37719,-184.17649 -327.88427,-183.42076 -328.13781,-182.05303 -328.13779,-180.07329 L -328.13779,-169.3443 C -328.13781,-166.81106 -328.64488,-164.9271 -329.65898,-163.69241 -330.67313,-162.45773 -332.21967,-161.84038 -334.29862,-161.84038 -336.3776,-161.84038 -337.91781,-162.45773 -338.91925,-163.69241 -339.92072,-164.9271 -340.42144,-166.81106 -340.42143,-169.3443 z"
       inkscape:connector-curvature="0" />
    <path
       id="path2992-0"
       style="font-size:71.42389679px;font-style:normal;font-variant:normal;font-weight:normal;font-stretch:normal;line-height:125%;letter-spacing:0px;word-spacing:0px;fill:#004455;fill-opacity:1;stroke:none;font-family:VAGRounded BT;-inkscape-font-specification:VAGRounded BT"
       d="M -298.17026,-169.3443 C -298.17028,-166.78977 -298.66467,-164.90048 -299.65342,-163.67645 -300.64223,-162.45241 -302.16341,-161.84038 -304.21701,-161.84038 -306.29598,-161.84038 -307.84253,-162.45773 -308.85665,-163.69241 -309.8708,-164.9271 -310.37785,-166.81106 -310.37785,-169.3443 L -310.37785,-190.06786 C -310.37785,-192.60106 -309.87713,-194.4797 -308.87567,-195.70378 -307.87422,-196.92778 -306.32133,-197.53981 -304.21701,-197.53984 -302.16341,-197.53981 -300.64223,-196.92778 -299.65342,-195.70378 -298.66467,-194.4797 -298.17028,-192.60106 -298.17026,-190.06786 z"
       inkscape:connector-curvature="0" />
    <path
       id="path2994-9"
       style="font-size:71.42389679px;font-style:normal;font-variant:normal;font-weight:normal;font-stretch:normal;line-height:125%;letter-spacing:0px;word-spacing:0px;fill:#004455;fill-opacity:1;stroke:none;font-family:VAGRounded BT;-inkscape-font-specification:VAGRounded BT"
       d="M -288.92901,-204.66057 C -288.92901,-207.21505 -288.42194,-209.10965 -287.40782,-210.34438 -286.39369,-211.57902 -284.84715,-212.19637 -282.76818,-212.19641 -280.73993,-212.19637 -279.22507,-211.5737 -278.22361,-210.32842 -277.22216,-209.08304 -276.72145,-207.19376 -276.72143,-204.66057 L -276.72143,-169.3443 C -276.72145,-166.78977 -277.21583,-164.90048 -278.20459,-163.67645 -279.19337,-162.45241 -280.71457,-161.84038 -282.76818,-161.84038 -284.84715,-161.84038 -286.39369,-162.45773 -287.40782,-163.69241 -288.42194,-164.9271 -288.92901,-166.81106 -288.92901,-169.3443 z"
       inkscape:connector-curvature="0" />
    <path
       style="fill:#004455;fill-opacity:1;stroke:none"
       d="M -308.04537,-212.55701 -309.1746,-209.73812 C -309.31332,-209.56983 -309.42666,-209.38811 -309.54901,-209.20687 -309.79371,-208.84439 -310.00072,-208.45801 -310.17303,-208.05062 -310.34534,-207.64323 -310.48789,-207.21247 -310.57864,-206.76937 -310.66944,-206.32627 -310.70345,-205.86398 -310.70345,-205.39437 -310.70345,-201.63748 -307.65264,-198.58187 -303.90165,-198.58187 -300.15066,-198.58187 -297.13105,-201.63748 -297.13105,-205.39437 -297.13105,-209.15126 -300.15066,-212.20687 -303.90165,-212.20687 -304.95511,-212.20687 -305.84974,-211.93496 -306.73998,-211.50359 L -305.89851,-209.76937 C -305.28918,-210.05074 -304.61697,-210.20687 -303.90165,-210.20687 -301.25314,-210.20687 -299.12791,-208.04704 -299.12791,-205.39437 -299.12791,-202.7417 -301.25314,-200.58187 -303.90165,-200.58187 -306.55015,-200.58187 -308.70659,-202.7417 -308.70659,-205.39437 -308.70659,-205.72595 -308.67719,-206.0502 -308.61299,-206.36312 -308.54889,-206.67605 -308.45395,-206.98161 -308.33219,-207.26937 -308.22326,-207.52677 -308.07669,-207.75579 -307.92657,-207.98812 L -305.64923,-207.76415 z"
       id="path3028-4-8-8"
       inkscape:connector-curvature="0" />
    <path
       style="fill:#d45500;fill-opacity:1;stroke:none"
       d="M -308.42436,-213.43526 -309.55359,-210.61637 C -309.69232,-210.44808 -309.80566,-210.26636 -309.92801,-210.08512 -310.1727,-209.72264 -310.37972,-209.33626 -310.55202,-208.92887 -310.72433,-208.52148 -310.86689,-208.09072 -310.95764,-207.64762 -311.04834,-207.20452 -311.08244,-206.74223 -311.08244,-206.27262 -311.08244,-202.51573 -308.03163,-199.46012 -304.28064,-199.46012 -300.52965,-199.46012 -297.51004,-202.51573 -297.51004,-206.27262 -297.51004,-210.02951 -300.52965,-213.08512 -304.28064,-213.08512 -305.3341,-213.08512 -306.22874,-212.81321 -307.11898,-212.38184 L -306.2775,-210.64762 C -305.66818,-210.92899 -304.99597,-211.08512 -304.28064,-211.08512 -301.63214,-211.08512 -299.5069,-208.92529 -299.5069,-206.27262 -299.5069,-203.61995 -301.63214,-201.46012 -304.28064,-201.46012 -306.92914,-201.46012 -309.08558,-203.61995 -309.08558,-206.27262 -309.08558,-206.6042 -309.05628,-206.92845 -308.99208,-207.24137 -308.92798,-207.5543 -308.83304,-207.85986 -308.71127,-208.14762 -308.60234,-208.40502 -308.45577,-208.63404 -308.30566,-208.86637 L -306.02831,-208.6424 z"
       id="path3028-4-2"
       inkscape:connector-curvature="0" />
  </g>
  <rect
     style="fill:none;stroke:#004455;stroke-width:1.14791071;stroke-linecap:round;stroke-linejoin:miter;stroke-miterlimit:4;stroke-opacity:1;stroke-dasharray:none;stroke-dashoffset:0"
     id="rect3088-2"
     width="35.920914"
     height="41.368275"
     x="328.20621"
     y="65.176514"
     ry="2.6088102"
     rx="0.84025526" />
  <path
     sodipodi:type="star"
     style="fill:#d45500;fill-opacity:1;stroke:none"
     id="path3866-6"
     sodipodi:sides="3"
     sodipodi:cx="-40.413296"
     sodipodi:cy="-25.19038"
     sodipodi:r1="3.7094474"
     sodipodi:r2="1.8547237"
     sodipodi:arg1="2.0831858"
     sodipodi:arg2="3.1303833"
     inkscape:flatsided="true"
     inkscape:rounded="0"
     inkscape:randomized="0"
     d="M -42.231894,-21.957317 -42.303912,-28.381864 -36.704081,-25.23196 z"
     inkscape:transform-center-x="-1.7726571"
     inkscape:transform-center-y="0.038847375"
     transform="matrix(1.44867,0,0,1.9366578,424.88042,134.42997)" />
  <g
     id="g4048"
     transform="matrix(11.069258,0,0,13.03757,264.16569,-50.249689)">
    <rect
       rx="0.075908899"
       ry="0.20009942"
       y="5.3669157"
       x="5.8055696"
       height="3.1730053"
       width="3.2451055"
       id="rect3088"
       style="fill:none;stroke:#004455;stroke-width:0.09555436;stroke-linecap:round;stroke-linejoin:miter;stroke-miterlimit:4;stroke-opacity:1;stroke-dasharray:none;stroke-dashoffset:0" />
    <path
       transform="matrix(0.13087327,0,0,0.14854438,14.53915,10.678756)"
       inkscape:transform-center-y="0.020789747"
       inkscape:transform-center-x="-0.90929912"
       d="M -42.231894,-21.957317 -42.303912,-28.381864 -36.704081,-25.23196 z"
       inkscape:randomized="0"
       inkscape:rounded="0"
       inkscape:flatsided="true"
       sodipodi:arg2="3.1303833"
       sodipodi:arg1="2.0831858"
       sodipodi:r2="1.8547237"
       sodipodi:r1="3.7094474"
       sodipodi:cy="-25.19038"
       sodipodi:cx="-40.413296"
       sodipodi:sides="3"
       id="path3866"
       style="fill:#d45500;fill-opacity:1;stroke:none"
       sodipodi:type="star" />
    <path
       transform="matrix(0.13087327,0,0,0.14854438,10.667647,11.651024)"
       inkscape:transform-center-y="0.020789747"
       inkscape:transform-center-x="-0.90929912"
       d="M -42.231894,-21.957317 -42.303912,-28.381864 -36.704081,-25.23196 z"
       inkscape:randomized="0"
       inkscape:rounded="0"
       inkscape:flatsided="true"
       sodipodi:arg2="3.1303833"
       sodipodi:arg1="2.0831858"
       sodipodi:r2="1.8547237"
       sodipodi:r1="3.7094474"
       sodipodi:cy="-25.19038"
       sodipodi:cx="-40.413296"
       sodipodi:sides="3"
       id="path3866-5"
       style="fill:#d45500;fill-opacity:1;stroke:none"
       sodipodi:type="star" />
    <path
       sodipodi:nodetypes="cccsc"
       inkscape:connector-curvature="0"
       id="path3970"
       d="M 5.9457754,6.9697617 8.806898,6.9760762 M 8.681898,6.9995137 C 8.6850677,7.1008151 8.0435295,8.8540746 7.3817409,6.9760762 6.766528,5.2302484 6.1109069,6.7855268 6.10834,6.9541367"
       style="fill:none;stroke:#004455;stroke-width:0.1;stroke-linecap:round;stroke-linejoin:miter;stroke-miterlimit:4;stroke-opacity:1" />
    <path
       transform="matrix(0.13087327,0,0,0.14854438,10.650095,9.6590044)"
       inkscape:transform-center-y="0.020789747"
       inkscape:transform-center-x="-0.90929912"
       d="M -42.231894,-21.957317 -42.303912,-28.381864 -36.704081,-25.23196 z"
       inkscape:randomized="0"
       inkscape:rounded="0"
       inkscape:flatsided="true"
       sodipodi:arg2="3.1303833"
       sodipodi:arg1="2.0831858"
       sodipodi:r2="1.8547237"
       sodipodi:r1="3.7094474"
       sodipodi:cy="-25.19038"
       sodipodi:cx="-40.413296"
       sodipodi:sides="3"
       id="path3866-5-4"
       style="fill:#d45500;fill-opacity:1;stroke:none"
       sodipodi:type="star" />
  </g>
  <g
     id="g4288"
     transform="matrix(11.069258,0,0,13.03757,274.4388,7.6569489)">
    <g
       transform="translate(-0.06629126,8.4062442e-8)"
       id="g4042">
      <rect
         style="fill:none;stroke:#004455;stroke-width:0.09555436;stroke-linecap:round;stroke-linejoin:miter;stroke-miterlimit:4;stroke-opacity:1;stroke-dasharray:none;stroke-dashoffset:0"
         id="rect3088-9"
         width="3.2451055"
         height="3.1730053"
         x="12.125352"
         y="1.8588241"
         ry="0.20009942"
         rx="0.075908899" />
      <path
         sodipodi:type="star"
         style="fill:#d45500;fill-opacity:1;stroke:none"
         id="path3866-4"
         sodipodi:sides="3"
         sodipodi:cx="-40.413296"
         sodipodi:cy="-25.19038"
         sodipodi:r1="3.7094474"
         sodipodi:r2="1.8547237"
         sodipodi:arg1="2.0831858"
         sodipodi:arg2="3.1303833"
         inkscape:flatsided="true"
         inkscape:rounded="0"
         inkscape:randomized="0"
         d="M -42.231894,-21.957317 -42.303912,-28.381864 -36.704081,-25.23196 z"
         inkscape:transform-center-x="-0.90929912"
         inkscape:transform-center-y="0.020789747"
         transform="matrix(0.13087327,0,0,0.14854438,20.858933,7.1706641)" />
      <path
         sodipodi:type="star"
         style="fill:#d45500;fill-opacity:1;stroke:none"
         id="path3866-5-6"
         sodipodi:sides="3"
         sodipodi:cx="-40.413296"
         sodipodi:cy="-25.19038"
         sodipodi:r1="3.7094474"
         sodipodi:r2="1.8547237"
         sodipodi:arg1="2.0831858"
         sodipodi:arg2="3.1303833"
         inkscape:flatsided="true"
         inkscape:rounded="0"
         inkscape:randomized="0"
         d="M -42.231894,-21.957317 -42.303912,-28.381864 -36.704081,-25.23196 z"
         inkscape:transform-center-x="-0.90929912"
         inkscape:transform-center-y="0.020789747"
         transform="matrix(0.13087327,0,0,0.14854438,16.98743,8.1429321)" />
      <path
         sodipodi:type="star"
         style="fill:#d45500;fill-opacity:1;stroke:none"
         id="path3866-5-4-3"
         sodipodi:sides="3"
         sodipodi:cx="-40.413296"
         sodipodi:cy="-25.19038"
         sodipodi:r1="3.7094474"
         sodipodi:r2="1.8547237"
         sodipodi:arg1="2.0831858"
         sodipodi:arg2="3.1303833"
         inkscape:flatsided="true"
         inkscape:rounded="0"
         inkscape:randomized="0"
         d="M -42.231894,-21.957317 -42.303912,-28.381864 -36.704081,-25.23196 z"
         inkscape:transform-center-x="-0.90929912"
         inkscape:transform-center-y="0.020789747"
         transform="matrix(0.13087327,0,0,0.14854438,16.969878,6.1509131)" />
    </g>
    <path
       sodipodi:nodetypes="ccc"
       inkscape:connector-curvature="0"
       inkscape:original-d="M 12.396466,2.4067637 C 13.103573,2.4067637 13.194182,2.4067637 13.194182,2.4067637 L 13.195523,3.0176697"
       inkscape:path-effect="#path-effect4057"
       id="path4055"
       d="M 12.396466,2.4067637 13.194182,2.4067637 13.195523,3.0176697"
       style="fill:none;stroke:#004455;stroke-width:0.1;stroke-linecap:round;stroke-linejoin:miter;stroke-miterlimit:4;stroke-opacity:1;stroke-dasharray:none;stroke-dashoffset:0" />
    <path
       inkscape:connector-curvature="0"
       inkscape:original-d="M 12.396466,4.3513074 14.893437,4.3734045 14.893437,3.4011327"
       inkscape:path-effect="#path-effect4061"
       id="path4059"
       d="M 12.396466,4.3513074 14.893437,4.3734045 14.893437,3.4011327"
       style="fill:none;stroke:#004455;stroke-width:0.1;stroke-linecap:round;stroke-linejoin:miter;stroke-miterlimit:4;stroke-opacity:1;stroke-dasharray:none;stroke-dashoffset:0" />
    <path
       sodipodi:nodetypes="ccc"
       inkscape:connector-curvature="0"
       inkscape:original-d="M 13.744388,2.9591909 14.473593,3.2906473 13.722291,3.6442006"
       inkscape:path-effect="#path-effect4065"
       id="path4063"
       d="M 13.744388,2.9591909 14.473593,3.2906473 13.722291,3.6442006"
       style="fill:none;stroke:#004455;stroke-width:0.1;stroke-linecap:round;stroke-linejoin:miter;stroke-miterlimit:4;stroke-opacity:1;stroke-dasharray:none;stroke-dashoffset:0" />
  </g>
  <g
     id="g4265"
     transform="matrix(11.069258,0,0,13.03757,314.08411,-38.877183)">
    <rect
       rx="0.075908899"
       ry="0.20009942"
       y="5.5004559"
       x="16.625437"
       height="3.1730053"
       width="3.2451055"
       id="rect3088-8"
       style="fill:none;stroke:#004455;stroke-width:0.09555436;stroke-linecap:round;stroke-linejoin:miter;stroke-miterlimit:4;stroke-opacity:1;stroke-dasharray:none;stroke-dashoffset:0" />
    <path
       transform="matrix(0.13087327,0,0,0.14854438,25.359017,10.10516)"
       inkscape:transform-center-y="0.020789747"
       inkscape:transform-center-x="-0.90929912"
       d="M -42.231894,-21.957317 -42.303912,-28.381864 -36.704081,-25.23196 z"
       inkscape:randomized="0"
       inkscape:rounded="0"
       inkscape:flatsided="true"
       sodipodi:arg2="3.1303833"
       sodipodi:arg1="2.0831858"
       sodipodi:r2="1.8547237"
       sodipodi:r1="3.7094474"
       sodipodi:cy="-25.19038"
       sodipodi:cx="-40.413296"
       sodipodi:sides="3"
       id="path3866-2"
       style="fill:#d45500;fill-opacity:1;stroke:none"
       sodipodi:type="star" />
    <path
       transform="matrix(0.13087327,0,0,0.14854438,21.487514,11.76251)"
       inkscape:transform-center-y="0.020789747"
       inkscape:transform-center-x="-0.90929912"
       d="M -42.231894,-21.957317 -42.303912,-28.381864 -36.704081,-25.23196 z"
       inkscape:randomized="0"
       inkscape:rounded="0"
       inkscape:flatsided="true"
       sodipodi:arg2="3.1303833"
       sodipodi:arg1="2.0831858"
       sodipodi:r2="1.8547237"
       sodipodi:r1="3.7094474"
       sodipodi:cy="-25.19038"
       sodipodi:cx="-40.413296"
       sodipodi:sides="3"
       id="path3866-5-7"
       style="fill:#d45500;fill-opacity:1;stroke:none"
       sodipodi:type="star" />
    <g
       id="g4173">
      <path
         style="fill:#004455;fill-opacity:1"
         inkscape:connector-curvature="0"
         d="M 17.74344,5.6045872 C 17.729684,5.6050391 17.71487,5.6104176 17.698068,5.6244502 17.656907,5.6076494 17.617,5.601813 17.581313,5.6360164 17.526203,5.6284502 17.508295,5.644063 17.494727,5.6622907 17.482629,5.6620252 17.404199,5.6491278 17.368234,5.705915 17.277851,5.6945945 17.249286,5.7621871 17.281652,5.8252178 17.263193,5.8554659 17.244066,5.8853479 17.287234,5.943012 17.271963,5.9751288 17.281429,6.009969 17.317402,6.0521329 17.307908,6.0972818 17.326569,6.1291351 17.360041,6.1539603 17.353781,6.2157439 17.413569,6.2516642 17.431421,6.2644651 17.438276,6.3004647 17.452563,6.3344352 17.520853,6.3532181 17.532115,6.4068673 17.573157,6.4161321 17.612901,6.4273921 17.481543,6.508212 17.368896,6.614549 17.36966,6.8754616 L 17.35042,6.9117931 C 17.199801,7.0087448 17.064289,7.3203578 17.276193,7.573639 17.290035,7.6529221 17.313248,7.7098701 17.333917,7.7728968 17.364831,8.0268658 17.566584,8.1457865 17.619797,8.1598505 17.697774,8.2227202 17.780822,8.2823757 17.893207,8.3241614 17.999149,8.4398155 18.113924,8.4838943 18.229327,8.4838219 18.231019,8.4838208 18.232742,8.483842 18.234434,8.4838219 18.349836,8.4838979 18.464608,8.4398195 18.570554,8.3241614 18.682935,8.2823757 18.765986,8.2227202 18.843964,8.1598505 18.897177,8.1457869 19.098929,8.0268658 19.129843,7.7728968 19.150511,7.7098701 19.173726,7.6529221 19.187567,7.573639 19.399468,7.3203377 19.26396,7.0087046 19.113337,6.9117529 L 19.094068,6.8754262 C 19.094831,6.6145337 18.982185,6.5081967 18.850828,6.4273567 18.890571,6.4160991 18.931614,6.4068343 18.942875,6.3531827 19.011165,6.3343966 19.025455,6.3004265 19.032308,6.2644297 19.050163,6.2516317 19.109947,6.2157085 19.103688,6.1539249 19.137159,6.1290972 19.155821,6.0972424 19.146327,6.0520975 19.182299,6.0099336 19.191767,5.9750954 19.176494,5.9429766 19.219669,5.8853367 19.200514,5.8554546 19.182081,5.8252065 19.214425,5.7621759 19.185882,5.6945833 19.095465,5.7059037 19.059511,5.6491166 18.981104,5.662014 18.96898,5.6622795 18.955412,5.6440518 18.937511,5.6284389 18.882402,5.6360052 18.846714,5.6018018 18.806807,5.6076382 18.765646,5.6244394 18.71677,5.5836151 18.684427,5.6163401 18.647485,5.6287133 18.588309,5.608246 18.574779,5.6362803 18.545704,5.6476965 18.481169,5.633262 18.461558,5.6646892 18.430621,5.6978579 L 18.394633,5.6971036 C 18.297295,5.7578211 18.24894,5.8814566 18.231799,5.9450142 18.21465,5.8814445 18.166405,5.757809 18.069086,5.6971036 L 18.033099,5.6978579 C 18.002124,5.6646892 17.982513,5.6332624 17.917978,5.6476965 17.888903,5.6362803 17.875411,5.608246 17.816197,5.6287133 17.79195,5.6205931 17.769651,5.6037134 17.743392,5.6045759 z"
         id="path4105" />
      <path
         style="fill:#ffffff;fill-opacity:1"
         inkscape:connector-curvature="0"
         d="M 17.549646,5.8717063 C 17.807891,6.0126322 17.958023,6.1266328 18.040269,6.2237253 17.99815,6.402414 17.778421,6.4105684 17.698075,6.4055559 17.714526,6.397451 17.728252,6.3877433 17.733119,6.3728268 17.712959,6.3576614 17.641475,6.371229 17.591569,6.3415521 17.610739,6.3373482 17.619706,6.3332529 17.628674,6.3182781 17.581523,6.3023607 17.530735,6.2886439 17.500866,6.2622754 17.516986,6.2624862 17.532036,6.2660923 17.553087,6.2506384 17.510854,6.2265485 17.46579,6.2074567 17.430779,6.1706352 17.452614,6.1700695 17.476154,6.1704067 17.482999,6.1619075 17.444347,6.1365605 17.411734,6.1083709 17.384738,6.0775395 17.415295,6.0814438 17.428198,6.0780817 17.435586,6.0724481 17.406368,6.0407711 17.369387,6.0140237 17.351756,5.9749896 17.374444,5.9832667 17.395201,5.9864351 17.410164,5.9742622 17.400235,5.9505533 17.357696,5.9365694 17.333205,5.8811645 17.35709,5.883616 17.382423,5.8866803 17.387489,5.8811645 17.376403,5.8333565 17.357381,5.8064796 17.338724,5.7786331 17.389842,5.7778285 17.467291,5.7788423 17.463783,5.7742683 L 17.432175,5.7400846 C 17.482108,5.7258548 17.5332,5.7423702 17.57029,5.754631 17.586944,5.740721 17.569995,5.7231317 17.549676,5.7051735 17.59211,5.7111701 17.630455,5.721496 17.665113,5.735721 17.683631,5.7180231 17.653088,5.7003248 17.638315,5.6826269 17.703872,5.6957922 17.731647,5.7142898 17.759251,5.7328124 17.779278,5.7124936 17.760397,5.6952253 17.746882,5.6775379 17.796313,5.6969162 17.821774,5.7219345 17.84858,5.746631 17.857668,5.7336488 17.871668,5.7241334 17.854764,5.6928088 17.88986,5.7142214 17.916292,5.7394542 17.935847,5.767723 17.957561,5.7530882 17.948784,5.7330739 17.948902,5.7146289 17.985375,5.7460336 18.008523,5.7794538 18.036856,5.8120875 18.042564,5.8076888 18.047561,5.7927708 18.051973,5.7691753 18.138989,5.8585317 18.261943,6.0835963 18.083581,6.1728321 17.931784,6.0403181 17.750494,5.943998 17.549593,5.8717429 z"
         id="path4107" />
      <path
         style="fill:#ffffff;fill-opacity:1"
         inkscape:connector-curvature="0"
         d="M 18.919887,5.8717063 C 18.661672,6.0126442 18.511547,6.1266127 18.429301,6.2237253 18.47142,6.402414 18.69115,6.4105684 18.771495,6.4055559 18.755044,6.397451 18.741318,6.3877433 18.736451,6.3728268 18.756612,6.3576614 18.828096,6.371229 18.878002,6.3415521 18.858831,6.3373482 18.849864,6.3332529 18.840897,6.3182781 18.888047,6.3023607 18.938835,6.2886439 18.968704,6.2622754 18.952585,6.2624862 18.937535,6.2660923 18.916484,6.2506384 18.958716,6.2265485 19.00378,6.2074567 19.038792,6.1706352 19.016956,6.1700695 18.993416,6.1704067 18.986571,6.1619075 19.025224,6.1365605 19.057837,6.1083709 19.084833,6.0775395 19.054276,6.0814438 19.041372,6.0780817 19.033984,6.0724481 19.063202,6.0407711 19.100183,6.0140237 19.117814,5.9749896 19.095126,5.9832667 19.074369,5.9864351 19.059406,5.9742622 19.069335,5.9505533 19.111874,5.9365694 19.136365,5.8811645 19.112481,5.883616 19.087147,5.8866803 19.082081,5.8811645 19.093188,5.8333364 19.11221,5.8064595 19.130866,5.778613 19.079747,5.7778095 19.002298,5.7788236 19.005806,5.774249 L 19.037414,5.7400653 C 18.987481,5.7258355 18.93639,5.7423509 18.899299,5.7546116 18.882645,5.7407017 18.899594,5.7231124 18.919913,5.7051542 18.877479,5.7111508 18.839134,5.7214767 18.804476,5.7357016 18.785958,5.7180037 18.816501,5.7003054 18.831275,5.6826075 18.765718,5.6957729 18.737943,5.7142705 18.710339,5.7327931 18.690312,5.7124743 18.709192,5.695206 18.722707,5.6775186 18.673276,5.6968968 18.647816,5.7219152 18.62101,5.7466117 18.611922,5.7336295 18.597921,5.7241141 18.614825,5.6927895 18.57973,5.7142021 18.553297,5.7394349 18.533743,5.7677037 18.512028,5.7530689 18.520806,5.7330546 18.520687,5.7146096 18.484214,5.7460143 18.461067,5.7794345 18.432733,5.8120682 18.427026,5.8076695 18.422028,5.7927515 18.417616,5.769156 18.330601,5.8585124 18.207646,6.083577 18.386008,6.1728128 18.537725,6.0402706 18.719004,5.9439586 18.919921,5.8717035 z"
         id="path4109" />
      <path
         style="fill:#ffffff;fill-opacity:1"
         inkscape:connector-curvature="0"
         d="M 18.547506,7.6912826 A 0.30933309,0.30192355 0 1 1 17.928848,7.6912826 0.30933309,0.30192355 0 1 1 18.547506,7.6912826 z"
         id="path4111" />
      <path
         style="fill:#ffffff;fill-opacity:1"
         inkscape:connector-curvature="0"
         d="M 18.059189,6.8287951 A 0.28138648,0.34163272 26.071776 1 1 17.698251,7.406934 0.28138648,0.34163272 26.071776 1 1 18.059189,6.8287951 z"
         id="path4113" />
      <path
         style="fill:#ffffff;fill-opacity:1"
         inkscape:connector-curvature="0"
         d="M 18.405137,6.8127035 A 0.34163272,0.28138648 63.928224 1 0 18.766075,7.3908424 0.34163272,0.28138648 63.928224 1 0 18.405137,6.8127035 z"
         id="path4115" />
      <path
         style="fill:#ffffff;fill-opacity:1"
         inkscape:connector-curvature="0"
         d="M 17.4186,6.9741149 C 17.556981,6.9348515 17.465317,7.5800829 17.352724,7.5271416 17.228872,7.4217017 17.188981,7.1129046 17.4186,6.9741149 z"
         id="path4117" />
      <path
         style="fill:#ffffff;fill-opacity:1"
         inkscape:connector-curvature="0"
         d="M 19.017791,6.9660692 C 18.879395,6.9268182 18.971074,7.5720773 19.083667,7.5191361 19.207518,7.4136841 19.24741,7.1048589 19.017791,6.9660692 z"
         id="path4119" />
      <path
         style="fill:#ffffff;fill-opacity:1"
         inkscape:connector-curvature="0"
         d="M 18.547615,6.4855752 C 18.786428,6.4428923 18.985144,6.5930748 18.977124,6.8671785 18.969269,6.9722604 18.45963,6.5012202 18.547615,6.4855752 z"
         id="path4121" />
      <path
         style="fill:#ffffff;fill-opacity:1"
         inkscape:connector-curvature="0"
         d="M 17.887788,6.4775294 C 17.648956,6.4348465 17.450259,6.5850612 17.458279,6.8591407 17.466134,6.9642186 17.975772,6.4931784 17.887788,6.4775294 z"
         id="path4123" />
      <path
         style="fill:#ffffff;fill-opacity:1"
         inkscape:connector-curvature="0"
         d="M 18.230833,6.4136057 C 18.088298,6.4096814 17.951505,6.5255788 17.951175,6.5928013 17.950777,6.674482 18.063867,6.7581139 18.231802,6.760234 18.403298,6.7615342 18.512729,6.6932931 18.51328,6.6089974 18.513907,6.513494 18.357306,6.4121293 18.230829,6.4136017 z"
         id="path4125" />
      <path
         style="fill:#ffffff;fill-opacity:1"
         inkscape:connector-curvature="0"
         d="M 18.239536,8.0885762 C 18.363805,8.0828351 18.530554,8.1309452 18.530881,8.1947644 18.532944,8.256737 18.379654,8.3967577 18.231292,8.3940503 18.077644,8.4010658 17.92698,8.2608283 17.928952,8.2122197 17.926653,8.1409502 18.116042,8.0853055 18.239536,8.0885762 z"
         id="path4127" />
      <path
         style="fill:#ffffff;fill-opacity:1"
         inkscape:connector-curvature="0"
         d="M 17.780534,7.710344 C 17.869009,7.82317 17.909341,8.0213899 17.835506,8.0798223 17.765654,8.1244282 17.596021,8.106058 17.47545,7.9227204 17.394135,7.7688771 17.404614,7.6123263 17.461707,7.5663366 17.547084,7.5112874 17.679,7.5856425 17.780538,7.710344 z"
         id="path4129" />
      <path
         style="fill:#ffffff;fill-opacity:1"
         inkscape:connector-curvature="0"
         d="M 18.680827,7.6745805 C 18.585101,7.7932638 18.531797,8.0097275 18.60163,8.0794442 18.668399,8.1336084 18.847641,8.1260373 18.980043,7.9315789 19.076184,7.8009757 19.04397,7.5828667 18.989054,7.5249451 18.907477,7.4581571 18.790368,7.5436311 18.680826,7.6745484 z"
         id="path4131" />
    </g>
    <path
       transform="matrix(0.13087327,0,0,0.14854438,21.488716,9.669818)"
       inkscape:transform-center-y="0.020789747"
       inkscape:transform-center-x="-0.90929912"
       d="M -42.231894,-21.957317 -42.303912,-28.381864 -36.704081,-25.23196 z"
       inkscape:randomized="0"
       inkscape:rounded="0"
       inkscape:flatsided="true"
       sodipodi:arg2="3.1303833"
       sodipodi:arg1="2.0831858"
       sodipodi:r2="1.8547237"
       sodipodi:r1="3.7094474"
       sodipodi:cy="-25.19038"
       sodipodi:cx="-40.413296"
       sodipodi:sides="3"
       id="path3866-5-7-6"
       style="fill:#d45500;fill-opacity:1;stroke:none"
       sodipodi:type="star" />
    <path
       transform="matrix(0.13087327,0,0,0.14854438,21.488716,10.719658)"
       inkscape:transform-center-y="0.020789747"
       inkscape:transform-center-x="-0.90929912"
       d="M -42.231894,-21.957317 -42.303912,-28.381864 -36.704081,-25.23196 z"
       inkscape:randomized="0"
       inkscape:rounded="0"
       inkscape:flatsided="true"
       sodipodi:arg2="3.1303833"
       sodipodi:arg1="2.0831858"
       sodipodi:r2="1.8547237"
       sodipodi:r1="3.7094474"
       sodipodi:cy="-25.19038"
       sodipodi:cx="-40.413296"
       sodipodi:sides="3"
       id="path3866-5-7-2"
       style="fill:#d45500;fill-opacity:1;stroke:none"
       sodipodi:type="star" />
    <path
       transform="matrix(0.13087327,0,0,0.14854438,25.355709,11.250012)"
       inkscape:transform-center-y="0.020789747"
       inkscape:transform-center-x="-0.90929912"
       d="M -42.231894,-21.957317 -42.303912,-28.381864 -36.704081,-25.23196 z"
       inkscape:randomized="0"
       inkscape:rounded="0"
       inkscape:flatsided="true"
       sodipodi:arg2="3.1303833"
       sodipodi:arg1="2.0831858"
       sodipodi:r2="1.8547237"
       sodipodi:r1="3.7094474"
       sodipodi:cy="-25.19038"
       sodipodi:cx="-40.413296"
       sodipodi:sides="3"
       id="path3866-2-4"
       style="fill:#d45500;fill-opacity:1;stroke:none"
       sodipodi:type="star" />
  </g>
  <path
     style="fill:#000000;fill-opacity:0;stroke:#d45500;stroke-width:2.42896867;stroke-linecap:round;stroke-linejoin:miter;stroke-miterlimit:4;stroke-opacity:1;stroke-dasharray:none;stroke-dashoffset:0"
     d="M 368.60917,39.899581 400.40695,39.611443"
     id="path4298"
     inkscape:path-effect="#path-effect4300"
     inkscape:original-d="M 368.60917,39.899581 400.40695,39.611443"
     inkscape:connector-curvature="0"
     sodipodi:nodetypes="cc" />
  <path
     style="fill:none;stroke:#d45500;stroke-width:2.42896867;stroke-linecap:round;stroke-linejoin:miter;stroke-miterlimit:4;stroke-opacity:1;stroke-dasharray:none;stroke-dashoffset:0"
     d="M 369.09838,85.184695 380.59449,85.184695 380.8391,66.691973 403.83135,66.404044 403.83135,66.404044"
     id="path4302"
     inkscape:path-effect="#path-effect4304"
     inkscape:original-d="M 369.09838,85.184695 380.59449,85.184695 380.8391,66.691973 403.83135,66.404044 403.83135,66.404044"
     inkscape:connector-curvature="0"
     sodipodi:nodetypes="ccccc" />
  <path
     style="fill:none;stroke:#004455;stroke-width:1.20131707;stroke-linecap:round;stroke-linejoin:round;stroke-miterlimit:4;stroke-opacity:1;stroke-dasharray:none;stroke-dashoffset:0"
     d="M 343.24768,82.869926 348.26554,76.860858 348.02094,94.54192"
     id="path4317"
     inkscape:path-effect="#path-effect4319"
     inkscape:original-d="M 343.24768,82.869926 348.26554,76.860858 348.02094,94.54192"
     inkscape:connector-curvature="0"
     sodipodi:nodetypes="ccc" />
  <path
     style="fill:#d45500;fill-opacity:1;stroke:#d45500;stroke-width:2.42896867;stroke-linecap:round;stroke-linejoin:round;stroke-miterlimit:4;stroke-opacity:1;stroke-dasharray:none;stroke-dashoffset:0"
     d="M 447.15436,52.435987 492.81504,52.028475"
     id="path4321"
     inkscape:path-effect="#path-effect4323"
     inkscape:original-d="M 447.15436,52.435987 C 449.92166,52.028475 492.81504,52.028475 492.81504,52.028475"
     inkscape:connector-curvature="0" />
  <g
     id="g3917-7-5-1"
     transform="matrix(11.069258,0,0,13.03757,503.46719,-93.474125)">
    <g
       id="g4358"
       transform="translate(0.02209709,1.1048543)">
      <rect
         style="fill:none;stroke:#004455;stroke-width:0.09555436;stroke-linecap:round;stroke-linejoin:miter;stroke-miterlimit:4;stroke-opacity:1;stroke-dasharray:none;stroke-dashoffset:0"
         id="rect3088-2-8-9"
         width="3.2451055"
         height="3.1730053"
         x="7.7757177"
         y="9.8123779"
         ry="0.20009942"
         rx="0.075908899" />
      <path
         sodipodi:type="star"
         style="fill:#d45500;fill-opacity:1;stroke:none"
         id="path3866-6-1-8"
         sodipodi:sides="3"
         sodipodi:cx="-40.413296"
         sodipodi:cy="-25.19038"
         sodipodi:r1="3.7094474"
         sodipodi:r2="1.8547237"
         sodipodi:arg1="2.0831858"
         sodipodi:arg2="3.1303833"
         inkscape:flatsided="true"
         inkscape:rounded="0"
         inkscape:randomized="0"
         d="M -42.231894,-21.957317 -42.303912,-28.381864 -36.704081,-25.23196 z"
         inkscape:transform-center-x="-0.90929912"
         inkscape:transform-center-y="0.020789747"
         transform="matrix(0.13087327,0,0,0.14854438,12.606842,15.982483)" />
      <path
         sodipodi:type="star"
         style="fill:#d45500;fill-opacity:1;stroke:none"
         id="path3866-5-0-2-2"
         sodipodi:sides="3"
         sodipodi:cx="-40.413296"
         sodipodi:cy="-25.19038"
         sodipodi:r1="3.7094474"
         sodipodi:r2="1.8547237"
         sodipodi:arg1="2.0831858"
         sodipodi:arg2="3.1303833"
         inkscape:flatsided="true"
         inkscape:rounded="0"
         inkscape:randomized="0"
         d="M -42.231894,-21.957317 -42.303912,-28.381864 -36.704081,-25.23196 z"
         inkscape:transform-center-x="-0.90929912"
         inkscape:transform-center-y="0.020789747"
         transform="matrix(0.13087327,0,0,0.14854438,12.606545,14.280468)" />
    </g>
  </g>
  <path
     style="fill:#d45500;fill-opacity:1;stroke:#d45500;stroke-width:2.42896867;stroke-linecap:round;stroke-linejoin:round;stroke-miterlimit:4;stroke-opacity:1;stroke-dasharray:none;stroke-dashoffset:0"
     d="M 538.76696,58.829239 584.42764,58.421727"
     id="path4321-5"
     inkscape:path-effect="#path-effect4323-4"
     inkscape:original-d="M 538.76696,58.829239 C 541.53426,58.421727 584.42764,58.421727 584.42764,58.421727"
     inkscape:connector-curvature="0" />
  <path
     style="fill:none;stroke:#d45500;stroke-width:2.42896867;stroke-linecap:round;stroke-linejoin:round;stroke-miterlimit:4;stroke-opacity:1;stroke-dasharray:none;stroke-dashoffset:0"
     d="M 582.96005,80.316828 562.98218,80.148065 562.82027,95.501327 470.36209,96.365531 470.85129,52.287399"
     id="path4321-9"
     inkscape:path-effect="#path-effect4323-2"
     inkscape:original-d="M 582.96005,80.316828 C 582.96005,80.316828 565.7495,79.740553 562.98218,80.148065 L 562.82027,95.501327 470.36209,96.365531 470.85129,52.287399"
     inkscape:connector-curvature="0"
     sodipodi:nodetypes="cc" />
  <path
     style="fill:#ffffff;fill-opacity:1;stroke:#004455;stroke-width:1.20131707;stroke-linecap:round;stroke-linejoin:round;stroke-miterlimit:4;stroke-opacity:1;stroke-dasharray:none;stroke-dashoffset:0"
     d="M 595.03273,54.269266 594.68681,83.603827"
     id="path4393"
     inkscape:path-effect="#path-effect4395"
     inkscape:original-d="M 595.03273,54.269266 594.68681,83.603827"
     inkscape:connector-curvature="0" />
  <path
     style="fill:#ffffff;fill-opacity:1;stroke:#004455;stroke-width:1.20131707;stroke-linecap:round;stroke-linejoin:round;stroke-miterlimit:4;stroke-opacity:1;stroke-dasharray:none;stroke-dashoffset:0"
     d="M 592.26542,80.548221 623.57067,80.34436"
     id="path4397"
     inkscape:path-effect="#path-effect4399"
     inkscape:original-d="M 592.26542,80.548221 623.57067,80.34436"
     inkscape:connector-curvature="0" />
  <path
     style="fill:none;stroke:#004455;stroke-width:1.20131707;stroke-linecap:butt;stroke-linejoin:miter;stroke-miterlimit:4;stroke-opacity:1;stroke-dasharray:none"
     d="M 597.28118,78.307221 C 597.33883,77.967803 597.37337,77.62166 597.45414,77.288756 597.48954,77.142691 597.56497,77.014279 597.6271,76.881244 598.19919,75.656186 598.76768,74.428605 599.35665,73.214477 599.4598,73.001998 599.62958,72.832605 599.70257,72.603314 599.80579,72.279237 599.80424,71.920694 599.87553,71.584849 599.91976,71.376574 599.99084,71.177337 600.04849,70.973686 600.1638,70.566174 600.30597,70.16812 600.3944,69.75136 600.42236,69.619586 600.3944,69.208081 600.3944,69.344058 600.3944,69.479825 600.3944,69.615593 600.3944,69.75136 600.3944,69.887128 600.36645,70.027098 600.3944,70.158872 600.42567,70.306198 600.51948,70.425362 600.56736,70.566174 600.63506,70.765621 600.6961,70.969062 600.74032,71.177337 600.75429,71.243329 600.71454,71.32046 600.74032,71.381198 600.77677,71.466946 600.87682,71.498891 600.91327,71.584849 600.93905,71.645587 600.85563,71.7885 600.91327,71.7885 600.9948,71.7885 601.02859,71.652732 601.08623,71.584849 601.20154,71.449082 601.3343,71.330968 601.43215,71.177337 601.5095,71.055861 601.5336,70.896345 601.60511,70.770035 602.12517,69.851188 601.22047,72.234472 602.12398,69.75136 602.26762,69.356668 602.30682,68.913218 602.46989,68.529034 602.56285,68.310251 602.73393,68.142959 602.81581,67.918081 602.90944,67.660628 602.92346,67.37228 602.98877,67.103057 603.03885,66.896674 603.13593,66.704582 603.16173,66.492105 603.19432,66.223092 603.12911,65.946093 603.16173,65.67708 603.1875,65.464602 603.3047,65.277765 603.33468,65.066127 603.36311,64.864999 603.33468,64.658615 603.33468,64.454964 603.39233,64.18322 603.46101,63.914628 603.50762,63.640151 603.53026,63.506906 603.45606,63.354115 603.50762,63.232639 603.5441,63.14668 603.64412,63.114736 603.68058,63.028988 603.73214,62.907512 603.62902,62.742952 603.68058,62.621476 603.71705,62.535517 603.80831,62.497688 603.85354,62.417825 603.92504,62.291515 603.93536,62.117708 604.0265,62.010313 604.06728,61.962395 604.17368,62.07105 604.19945,62.010313 604.25102,61.888837 604.163,61.731843 604.19945,61.603011 604.24336,61.447909 604.6477,61.195499 604.71833,61.195499 604.79987,61.195499 604.84606,61.319287 604.89128,61.39915 605.0343,61.651979 605.12189,61.942429 605.2372,62.213963 605.72196,63.356007 605.48736,62.746944 605.92903,64.047452 606.04434,64.387081 606.14648,64.733224 606.27495,65.066127 606.43498,65.480785 606.67151,65.856141 606.79382,66.288243 606.8485,66.481596 606.76935,66.697857 606.79382,66.899406 606.82743,67.176616 606.89161,67.44878 606.96678,67.71422 607.06495,68.061204 607.2145,68.385911 607.31269,68.732895 607.39787,69.033853 607.63576,70.324062 607.65861,70.566174 607.65861,73.061056 607.58568,69.9651 607.83157,71.992151 607.9669,73.107922 607.61381,72.598479 608.00452,73.825639 608.07751,74.054931 608.2847,74.204569 608.35044,74.436802 608.40512,74.629945 608.31652,74.848097 608.35044,75.047965 608.48963,75.867613 608.47665,75.141489 608.69636,75.659128 608.7479,75.780604 608.65988,75.937597 608.69636,76.06643 608.754,76.202197 608.81165,76.338175 608.86929,76.473941 608.92696,76.473941 609.00149,76.425815 609.04225,76.473941 609.08304,76.52186 609.00149,76.629675 609.04225,76.677593 609.26742,76.942822 609.54487,76.095223 609.56113,76.06643 609.60635,75.986567 609.68886,75.942642 609.73408,75.862778 609.80559,75.73647 609.84072,75.58557 609.90704,75.455267 610.01399,75.245312 610.14601,75.05406 610.25296,74.844104 610.3193,74.714012 610.34856,74.558278 610.42591,74.436802 610.52376,74.283172 610.6989,74.201206 610.77183,74.02929 610.82339,73.907815 610.729,73.748088 610.77183,73.621989 610.89584,73.25672 611.20676,72.998845 611.2907,72.603314 611.31866,72.47154 611.26809,72.329047 611.2907,72.196012 611.32646,71.985426 611.40602,71.7885 611.46366,71.584849 611.52131,71.381198 611.55509,71.165777 611.63662,70.973686 611.72957,70.754692 611.88956,70.581516 611.98253,70.362523 612.05172,70.199644 611.91335,69.914449 611.98253,69.75136 612.05546,69.579654 612.23799,69.503784 612.32845,69.344058 612.43207,69.161003 612.1536,68.937596 612.50141,68.732895 612.77814,68.569806 612.62824,68.82789 612.67437,68.936546 612.71082,69.022504 612.81085,69.054449 612.84732,69.140197 612.8731,69.200934 612.8291,69.279537 612.84732,69.344058 612.88809,69.488022 612.9795,69.607395 613.02028,69.75136 613.03851,69.815881 613.00205,69.8907 613.02028,69.95522 613.18757,70.546208 613.12871,70.19334 613.3662,70.566174 614.02073,71.594096 613.39396,70.80261 614.05803,71.584849 614.17332,71.720616 614.24923,71.931412 614.40392,71.992151 614.62271,72.078109 614.86747,71.9539 615.09576,71.992151 615.45672,72.052888 615.77977,72.295419 616.1335,72.399663 616.30646,72.450523 616.47942,72.297732 616.65238,72.399663 616.7555,72.460401 616.60081,72.685699 616.65238,72.807175 616.68883,72.892922 616.78888,72.924868 616.82533,73.010826 616.87146,73.119481 616.77921,73.309682 616.82533,73.418127 616.86179,73.504085 616.95306,73.542126 616.99829,73.621989 617.0698,73.748297 617.1136,73.893524 617.17125,74.02929 617.28656,74.301036 617.43562,74.556176 617.51716,74.844104 617.53539,74.908625 617.4764,74.999836 617.51716,75.047965 617.60832,75.15536 617.75582,75.16734 617.86308,75.251616 617.93092,75.304998 617.96311,75.412393 618.03604,75.455267 618.13917,75.516005 618.30041,75.359222 618.38195,75.455267 618.42272,75.503395 618.34117,75.610999 618.38195,75.659128 618.6196,75.939069 618.95331,75.862778 619.24674,75.862778 619.53499,75.862778 619.82326,75.862778 620.11151,75.862778 620.28447,75.862778 620.45916,75.833987 620.63039,75.862778 620.86571,75.902291 621.09161,75.998547 621.32222,76.06643 621.55282,76.134314 621.78344,76.202197 622.01405,76.270291"
     id="path4401"
     inkscape:connector-curvature="0" />
  <text
     xml:space="preserve"
     style="font-size:32.38624573px;font-style:normal;font-variant:normal;font-weight:normal;font-stretch:normal;line-height:125%;letter-spacing:0px;word-spacing:0px;fill:#004455;fill-opacity:1;stroke:none;font-family:Blogger Sans;-inkscape-font-specification:Blogger Sans"
     x="338.96512"
     y="145.29398"
     id="text3064"
     sodipodi:linespacing="125%"
     transform="scale(0.96311468,1.0382979)"><tspan
       sodipodi:role="line"
       id="tspan3066"
       x="338.96512"
       y="145.29398">Put Raspberry in the loop</tspan></text>
</svg>
